<?xml version="1.0" encoding="UTF-8" standalone="no"?><!DOCTYPE svg PUBLIC "-//W3C//DTD SVG 1.1//EN" "http://www.w3.org/Graphics/SVG/1.1/DTD/svg11.dtd"><svg width="100%" height="100%" viewBox="0 0 1000 425" version="1.1" xmlns="http://www.w3.org/2000/svg" xmlns:xlink="http://www.w3.org/1999/xlink" xml:space="preserve" xmlns:serif="http://www.serif.com/" style="fill-rule:evenodd;clip-rule:evenodd;stroke-linecap:round;stroke-linejoin:round;stroke-miterlimit:1.5;"><path d="M16.594,-1.353l-15.675,-12.942l-17.513,21.211l15.675,12.943l17.513,-21.212Z" style="fill:#fff;"/><path d="M475.899,0l-465.211,-55.81l-6.938,57.839l465.21,55.81l6.939,-57.839Z" style="fill:#fff;"/><path d="M527.85,0l465.211,-55.81l6.939,57.839l-465.211,55.81l-6.939,-57.839Z" style="fill:#fff;"/><rect x="461.893" y="-6.476" width="76.651" height="64.315" style="fill:#fff;"/><rect x="468.22" y="55.108" width="7.679" height="6.817" style="fill:#fff;"/><rect x="521.76" y="55.108" width="12.038" height="5.504" style="fill:#fff;"/><path d="M1010.65,5.174l-20.638,-15.302l-7.797,10.517l20.637,15.302l7.798,-10.517Z" style="fill:#fff;"/><rect x="455.226" y="417.856" width="29.745" height="14.184" style="fill:#fff;"/><rect x="513.913" y="417.856" width="29.745" height="14.184" style="fill:#fff;"/><rect x="472.911" y="421.454" width="50.067" height="7.092" style="fill:#fff;"/><path d="M1024.65,370.76l-493.649,49.022l5.386,54.24l493.649,-49.022l-5.386,-54.24Z" style="fill:#fff;"/><rect x="994.092" y="356.787" width="8.118" height="18.797" style="fill:#fff;"/><path d="M-8.678,370.76l493.649,49.022l-5.386,54.24l-493.649,-49.022l5.386,-54.24Z" style="fill:#fff;"/><rect x="-5.148" y="359.236" width="11.744" height="23.153" style="fill:#fff;"/><g><path d="M996.429,14.03c0,-2.857 -1.221,-5.576 -3.355,-7.474c-2.135,-1.898 -4.979,-2.792 -7.815,-2.458c-64.505,7.603 -388.488,45.791 -446.242,52.598c-5.027,0.593 -8.815,4.853 -8.815,9.915c0,49.246 0,288.65 0,343.358c0,2.845 1.207,5.558 3.321,7.463c2.114,1.905 4.937,2.824 7.767,2.529c64.257,-6.698 387.993,-40.444 446.176,-46.508c5.094,-0.531 8.963,-4.825 8.963,-9.947c0,-50.091 0,-293.989 0,-349.476Z" style="fill:none;stroke:#000;stroke-width:7.5px;"/><path d="M469.977,66.6c0,-5.056 -3.783,-9.311 -8.804,-9.903c-57.723,-6.803 -381.744,-44.995 -446.253,-52.599c-2.836,-0.334 -5.68,0.56 -7.815,2.458c-2.134,1.898 -3.355,4.617 -3.355,7.474c0,55.487 0,299.385 0,349.476c0,5.122 3.869,9.416 8.963,9.947c58.198,6.066 382.092,39.828 446.227,46.514c2.818,0.293 5.627,-0.622 7.732,-2.518c2.104,-1.896 3.305,-4.596 3.305,-7.429c0,-54.611 0,-294.185 0,-343.42Z" style="fill:none;stroke:#000;stroke-width:7.5px;"/><path d="M530.202,72.896c0,-8.31 -6.747,-15.057 -15.056,-15.057l-30.113,0c-8.31,0 -15.056,6.747 -15.056,15.057l0,333.165c0,8.31 6.746,15.056 15.056,15.056l30.113,0c8.309,0 15.056,-6.746 15.056,-15.056l0,-333.165Z" style="fill:none;stroke:#000;stroke-width:7.5px;"/><path d="M530.202,95.564c0,-2.549 -2.07,-4.619 -4.618,-4.619l-50.989,0c-2.549,0 -4.618,2.07 -4.618,4.619l0,9.236c0,2.549 2.069,4.618 4.618,4.618l50.989,0c2.548,0 4.618,-2.069 4.618,-4.618l0,-9.236Z" style="fill:none;stroke:#000;stroke-width:7.5px;"/><path d="M530.202,377.137c0,-2.549 -2.07,-4.619 -4.618,-4.619l-50.989,0c-2.549,0 -4.618,2.07 -4.618,4.619l0,9.236c0,2.549 2.069,4.618 4.618,4.618l50.989,0c2.548,0 4.618,-2.069 4.618,-4.618l0,-9.236Z" style="fill:none;stroke:#000;stroke-width:7.5px;"/></g></svg>