<?xml version="1.0" encoding="UTF-8" standalone="no"?><!DOCTYPE svg PUBLIC "-//W3C//DTD SVG 1.1//EN" "http://www.w3.org/Graphics/SVG/1.1/DTD/svg11.dtd"><svg width="100%" height="100%" viewBox="0 0 858 450" version="1.1" xmlns="http://www.w3.org/2000/svg" xmlns:xlink="http://www.w3.org/1999/xlink" xml:space="preserve" xmlns:serif="http://www.serif.com/" style="fill-rule:evenodd;clip-rule:evenodd;stroke-linecap:round;stroke-linejoin:round;stroke-miterlimit:1.5;"><path d="M875.394,-0.05l-17.328,-17.404l-16.117,16.048l17.328,17.403l16.117,-16.047Z" style="fill:#fff;"/><path d="M960.478,-65.642l-502.383,57.802l6.504,56.526l502.382,-57.801l-6.503,-56.527Z" style="fill:#fff;"/><path d="M-86.383,-65.642l502.382,57.802l-6.503,56.526l-502.383,-57.801l6.504,-56.527Z" style="fill:#fff;"/><rect x="-8.56" y="385.659" width="12.803" height="17.295" style="fill:#fff;"/><rect x="456.879" y="439.802" width="11.001" height="24.574" style="fill:#fff;"/><rect x="442.986" y="443.955" width="19.83" height="16.053" style="fill:#fff;"/><path d="M412.012,446.457l-414.104,-50.013l-6.468,53.556l414.104,50.012l6.468,-53.555Z" style="fill:#fff;"/><rect x="390.807" y="-11.017" width="76.381" height="65.552" style="fill:#fff;"/><path d="M14.012,1.43l-13.293,-9.066l-11.726,17.193l13.293,9.066l11.726,-17.193Z" style="fill:#fff;"/><rect x="392.951" y="439.695" width="11.779" height="9.962" style="fill:#fff;"/><rect x="404.73" y="444.485" width="14.132" height="10.342" style="fill:#fff;"/><path d="M452.901,444.319l414.104,-50.012l6.468,53.555l-414.104,50.013l-6.468,-53.556Z" style="fill:#fff;"/><rect x="851.674" y="389.053" width="13.76" height="9.795" style="fill:#fff;"/><g><path d="M854.241,13.584c0,-2.867 -1.231,-5.597 -3.38,-7.495c-2.149,-1.898 -5.01,-2.782 -7.855,-2.428c-56.675,7.057 -310.857,38.708 -371.764,46.292c-7.51,0.935 -13.147,7.318 -13.147,14.885c0,59.064 0,298.36 0,364.415c0,4.298 1.844,8.389 5.063,11.237c3.22,2.847 7.506,4.176 11.772,3.651c67.871,-8.363 320.178,-39.451 370.534,-45.655c5.012,-0.618 8.777,-4.875 8.777,-9.925c0,-51.914 0,-316.768 0,-374.977Z" style="fill:none;stroke:#000;stroke-width:7.5px;"/><path d="M458.095,66.139c0,-8.03 -6.519,-14.549 -14.548,-14.549l-29.098,0c-8.029,0 -14.548,6.519 -14.548,14.549l0,365.527c0,8.03 6.519,14.549 14.548,14.549l29.098,0c8.029,0 14.548,-6.519 14.548,-14.549l0,-365.527Z" style="fill:none;stroke:#000;stroke-width:7.5px;"/><path d="M399.901,429.231c0,4.301 -1.847,8.396 -5.071,11.243c-3.223,2.847 -7.515,4.174 -11.783,3.642c-67.905,-8.455 -320.207,-39.872 -370.528,-46.138c-5.006,-0.623 -8.764,-4.878 -8.764,-9.923c0,-51.847 0,-316.352 0,-374.485c0,-2.865 1.229,-5.593 3.375,-7.491c2.146,-1.898 5.004,-2.785 7.848,-2.434c56.642,6.979 310.811,38.296 371.757,45.805c7.518,0.926 13.166,7.313 13.166,14.888c0,59.14 0,298.752 0,364.893Z" style="fill:none;stroke:#000;stroke-width:7.5px;"/><path d="M458.095,104.066c0,-2.211 -1.795,-4.007 -4.006,-4.007l-50.182,0c-2.211,0 -4.006,1.796 -4.006,4.007l0,8.013c0,2.212 1.795,4.007 4.006,4.007l50.182,0c2.211,0 4.006,-1.795 4.006,-4.007l0,-8.013Z" style="fill:none;stroke:#000;stroke-width:7.5px;"/><path d="M458.095,392.48c0,-2.211 -1.795,-4.007 -4.006,-4.007l-50.182,0c-2.211,0 -4.006,1.796 -4.006,4.007l0,8.013c0,2.212 1.795,4.007 4.006,4.007l50.182,0c2.211,0 4.006,-1.795 4.006,-4.007l0,-8.013Z" style="fill:none;stroke:#000;stroke-width:7.5px;"/></g></svg>