<?xml version="1.0" encoding="UTF-8" standalone="no"?><!DOCTYPE svg PUBLIC "-//W3C//DTD SVG 1.1//EN" "http://www.w3.org/Graphics/SVG/1.1/DTD/svg11.dtd"><svg width="100%" height="100%" viewBox="0 0 461 293" version="1.1" xmlns="http://www.w3.org/2000/svg" xmlns:xlink="http://www.w3.org/1999/xlink" xml:space="preserve" xmlns:serif="http://www.serif.com/" style="fill-rule:evenodd;clip-rule:evenodd;stroke-linejoin:round;stroke-miterlimit:1.41421;"><g><g><rect x="-0.047" y="0.017" width="225.346" height="75.387" style="fill:#c8c8c8;"/><path d="M91.687,6.261c0,-0.268 -0.219,-0.487 -0.488,-0.487l-49.924,0c-0.269,0 -0.488,0.219 -0.488,0.487l0,8.772c0,0.269 0.219,0.487 0.488,0.487l49.924,0c0.269,0 0.488,-0.218 0.488,-0.487l0,-8.772Z" style="fill:#c0deed;"/><path d="M144.112,6.261c0,-0.268 -0.218,-0.487 -0.487,-0.487l-45.503,0c-0.269,0 -0.487,0.219 -0.487,0.487l0,8.772c0,0.269 0.218,0.487 0.487,0.487l45.503,0c0.269,0 0.487,-0.218 0.487,-0.487l0,-8.772Z" style="fill:#c0deed;"/><text x="98.338px" y="12.438px" style="font-family:'ArialMT', 'Arial', sans-serif;font-size:6.909px;">@</text><path d="M214.269,22.347c0,-1.203 -0.977,-2.18 -2.181,-2.18l-169.12,0c-1.204,0 -2.181,0.977 -2.181,2.18l0,39.246c0,1.203 0.977,2.18 2.181,2.18l169.12,0c1.204,0 2.181,-0.977 2.181,-2.18l0,-39.246Z" style="fill:#c0deed;"/><circle cx="20.52" cy="20.167" r="14.393" style="fill:#00aced;"/></g><g><rect x="230.116" y="0.017" width="230.284" height="62.216" style="fill:#c8c8c8;"/><path d="M321.353,6.261c0,-0.268 -0.218,-0.487 -0.487,-0.487l-49.925,0c-0.269,0 -0.487,0.219 -0.487,0.487l0,8.772c0,0.269 0.218,0.487 0.487,0.487l49.925,0c0.269,0 0.487,-0.218 0.487,-0.487l0,-8.772Z" style="fill:#c0deed;"/><path d="M373.779,6.261c0,-0.268 -0.219,-0.487 -0.488,-0.487l-45.502,0c-0.269,0 -0.488,0.219 -0.488,0.487l0,8.772c0,0.269 0.219,0.487 0.488,0.487l45.502,0c0.269,0 0.488,-0.218 0.488,-0.487l0,-8.772Z" style="fill:#c0deed;"/><text x="329.362px" y="12.638px" style="font-family:'ArialMT', 'Arial', sans-serif;font-size:6.909px;">@</text><path d="M443.935,21.722c0,-0.858 -0.697,-1.555 -1.555,-1.555l-170.371,0c-0.858,0 -1.555,0.697 -1.555,1.555l0,27.992c0,0.858 0.697,1.555 1.555,1.555l170.371,0c0.858,0 1.555,-0.697 1.555,-1.555l0,-27.992Z" style="fill:#c0deed;"/><circle cx="250.187" cy="20.167" r="14.393" style="fill:#00aced;"/></g><g><rect x="230.116" y="159.833" width="230.284" height="70.106" style="fill:#c8c8c8;"/><path d="M321.353,166.077c0,-0.268 -0.218,-0.487 -0.487,-0.487l-49.925,0c-0.269,0 -0.487,0.219 -0.487,0.487l0,8.772c0,0.269 0.218,0.487 0.487,0.487l49.925,0c0.269,0 0.487,-0.218 0.487,-0.487l0,-8.772Z" style="fill:#c0deed;"/><path d="M373.779,166.077c0,-0.268 -0.219,-0.487 -0.488,-0.487l-45.502,0c-0.269,0 -0.488,0.219 -0.488,0.487l0,8.772c0,0.269 0.219,0.487 0.488,0.487l45.502,0c0.269,0 0.488,-0.218 0.488,-0.487l0,-8.772Z" style="fill:#c0deed;"/><text x="329.362px" y="172.254px" style="font-family:'ArialMT', 'Arial', sans-serif;font-size:6.909px;">@</text><path d="M443.935,181.925c0,-1.072 -0.87,-1.942 -1.942,-1.942l-169.597,0c-1.072,0 -1.942,0.87 -1.942,1.942l0,34.957c0,1.072 0.87,1.942 1.942,1.942l169.597,0c1.072,0 1.942,-0.87 1.942,-1.942l0,-34.957Z" style="fill:#c0deed;"/><circle cx="250.187" cy="179.983" r="14.393" style="fill:#00aced;"/></g><g><rect x="-0.047" y="147.636" width="225.346" height="145.264" style="fill:#c8c8c8;"/><rect x="127.428" y="240.096" width="86.637" height="40.912" style="fill:#c0deed;"/><rect x="40.584" y="240.096" width="82.088" height="40.912" style="fill:#c0deed;"/><rect x="127.428" y="194.023" width="86.637" height="40.912" style="fill:#c0deed;"/><path d="M91.483,155.14c0,-0.269 -0.218,-0.487 -0.487,-0.487l-49.925,0c-0.269,0 -0.487,0.218 -0.487,0.487l0,8.772c0,0.269 0.218,0.487 0.487,0.487l49.925,0c0.269,0 0.487,-0.218 0.487,-0.487l0,-8.772Z" style="fill:#c0deed;"/><path d="M143.909,155.14c0,-0.269 -0.219,-0.487 -0.488,-0.487l-45.502,0c-0.269,0 -0.488,0.218 -0.488,0.487l0,8.772c0,0.269 0.219,0.487 0.488,0.487l45.502,0c0.269,0 0.488,-0.218 0.488,-0.487l0,-8.772Z" style="fill:#c0deed;"/><text x="99.492px" y="161.317px" style="font-family:'ArialMT', 'Arial', sans-serif;font-size:6.909px;fill:#c8c8c8;">@</text><path d="M214.065,170.136c0,-0.602 -0.488,-1.09 -1.09,-1.09l-171.301,0c-0.602,0 -1.09,0.488 -1.09,1.09l0,19.623c0,0.601 0.488,1.09 1.09,1.09l171.301,0c0.602,0 1.09,-0.489 1.09,-1.09l0,-19.623Z" style="fill:#c0deed;"/><rect x="40.584" y="194.023" width="82.088" height="40.912" style="fill:#c0deed;"/><circle cx="20.317" cy="169.046" r="14.393" style="fill:#00aced;"/><text x="98.338px" y="161.317px" style="font-family:'ArialMT', 'Arial', sans-serif;font-size:6.909px;">@</text></g><g><rect x="-0.047" y="80.436" width="225.346" height="62.216" style="fill:#c8c8c8;"/><path d="M91.626,86.681c0,-0.269 -0.218,-0.488 -0.487,-0.488l-49.925,0c-0.269,0 -0.487,0.219 -0.487,0.488l0,8.771c0,0.269 0.218,0.488 0.487,0.488l49.925,0c0.269,0 0.487,-0.219 0.487,-0.488l0,-8.771Z" style="fill:#c0deed;"/><path d="M144.051,86.681c0,-0.269 -0.218,-0.488 -0.487,-0.488l-45.502,0c-0.269,0 -0.488,0.219 -0.488,0.488l0,8.771c0,0.269 0.219,0.488 0.488,0.488l45.502,0c0.269,0 0.487,-0.219 0.487,-0.488l0,-8.771Z" style="fill:#c0deed;"/><path d="M214.208,102.141c0,-0.858 -0.697,-1.555 -1.555,-1.555l-170.371,0c-0.858,0 -1.555,0.697 -1.555,1.555l0,27.992c0,0.859 0.697,1.555 1.555,1.555l170.371,0c0.858,0 1.555,-0.696 1.555,-1.555l0,-27.992Z" style="fill:#c0deed;"/><circle cx="20.46" cy="100.586" r="14.393" style="fill:#00aced;"/><text x="98.338px" y="92.979px" style="font-family:'ArialMT', 'Arial', sans-serif;font-size:6.909px;">@</text></g><text x="109.596px" y="87.826px" style="font-family:'ArialMT', 'Arial', sans-serif;font-size:6.909px;fill:#c8c8c8;">@</text><g><rect x="230.116" y="68.083" width="230.284" height="84.923" style="fill:#c8c8c8;"/><rect x="270.454" y="105.756" width="173.481" height="40.912" style="fill:#c0deed;"/><path d="M321.353,74.661c0,-0.268 -0.218,-0.487 -0.487,-0.487l-49.925,0c-0.269,0 -0.487,0.219 -0.487,0.487l0,8.772c0,0.269 0.218,0.487 0.487,0.487l49.925,0c0.269,0 0.487,-0.218 0.487,-0.487l0,-8.772Z" style="fill:#c0deed;"/><path d="M373.779,74.661c0,-0.268 -0.219,-0.487 -0.488,-0.487l-45.502,0c-0.269,0 -0.488,0.219 -0.488,0.487l0,8.772c0,0.269 0.219,0.487 0.488,0.487l45.502,0c0.269,0 0.488,-0.218 0.488,-0.487l0,-8.772Z" style="fill:#c0deed;"/><text x="329.362px" y="81.038px" style="font-family:'ArialMT', 'Arial', sans-serif;font-size:6.909px;">@</text><path d="M443.935,89.293c0,-0.401 -0.325,-0.726 -0.726,-0.726l-172.029,0c-0.401,0 -0.726,0.325 -0.726,0.726l0,13.072c0,0.401 0.325,0.726 0.726,0.726l172.029,0c0.401,0 0.726,-0.325 0.726,-0.726l0,-13.072Z" style="fill:#c0deed;"/><circle cx="250.187" cy="88.567" r="14.393" style="fill:#00aced;"/></g><path d="M449.078,238.875c0,-0.858 -0.697,-1.555 -1.555,-1.555l-170.371,0c-0.858,0 -1.555,0.697 -1.555,1.555l0,27.992c0,0.859 0.697,1.556 1.555,1.556l170.371,0c0.858,0 1.555,-0.697 1.555,-1.556l0,-27.992Z" style="fill:#a6a6a6;"/><g><rect x="230.116" y="236.608" width="230.284" height="56.292" style="fill:#c8c8c8;"/><path d="M321.353,242.402c0,-0.269 -0.218,-0.487 -0.487,-0.487l-49.925,0c-0.269,0 -0.487,0.218 -0.487,0.487l0,8.772c0,0.269 0.218,0.487 0.487,0.487l49.925,0c0.269,0 0.487,-0.218 0.487,-0.487l0,-8.772Z" style="fill:#c0deed;"/><path d="M373.779,242.402c0,-0.269 -0.219,-0.487 -0.488,-0.487l-45.502,0c-0.269,0 -0.488,0.218 -0.488,0.487l0,8.772c0,0.269 0.219,0.487 0.488,0.487l45.502,0c0.269,0 0.488,-0.218 0.488,-0.487l0,-8.772Z" style="fill:#c0deed;"/><text x="331.06px" y="248.579px" style="font-family:'ArialMT', 'Arial', sans-serif;font-size:6.909px;">@</text><path d="M443.935,257.863c0,-0.859 -0.697,-1.555 -1.555,-1.555l-170.371,0c-0.858,0 -1.555,0.696 -1.555,1.555l0,27.992c0,0.858 0.697,1.555 1.555,1.555l170.371,0c0.858,0 1.555,-0.697 1.555,-1.555l0,-27.992Z" style="fill:#c0deed;"/><circle cx="250.187" cy="256.308" r="14.393" style="fill:#00aced;"/></g></g></svg>