<?xml version="1.0" encoding="UTF-8" standalone="no"?><!DOCTYPE svg PUBLIC "-//W3C//DTD SVG 1.1//EN" "http://www.w3.org/Graphics/SVG/1.1/DTD/svg11.dtd"><svg width="100%" height="100%" viewBox="0 0 231 295" version="1.1" xmlns="http://www.w3.org/2000/svg" xmlns:xlink="http://www.w3.org/1999/xlink" xml:space="preserve" xmlns:serif="http://www.serif.com/" style="fill-rule:evenodd;clip-rule:evenodd;stroke-linejoin:round;stroke-miterlimit:1.41421;"><g><g><rect x="0" y="153.499" width="230.284" height="140.801" style="fill:#c8c8c8;"/><rect x="126.978" y="245.959" width="86.637" height="40.912" style="fill:#c0deed;"/><rect x="40.134" y="245.959" width="82.088" height="40.912" style="fill:#c0deed;"/><rect x="126.978" y="199.885" width="86.637" height="40.912" style="fill:#c0deed;"/><path d="M91.033,161.003c0,-0.269 -0.218,-0.488 -0.487,-0.488l-49.925,0c-0.269,0 -0.487,0.219 -0.487,0.488l0,8.771c0,0.269 0.218,0.487 0.487,0.487l49.925,0c0.269,0 0.487,-0.218 0.487,-0.487l0,-8.771Z" style="fill:#c0deed;"/><path d="M143.459,161.003c0,-0.269 -0.219,-0.488 -0.488,-0.488l-45.502,0c-0.269,0 -0.487,0.219 -0.487,0.488l0,8.771c0,0.269 0.218,0.487 0.487,0.487l45.502,0c0.269,0 0.488,-0.218 0.488,-0.487l0,-8.771Z" style="fill:#c0deed;"/><text x="99.042px" y="167.18px" style="font-family:'ArialMT', 'Arial', sans-serif;font-size:6.909px;">@</text><path d="M213.615,175.998c0,-0.601 -0.488,-1.09 -1.09,-1.09l-171.301,0c-0.602,0 -1.09,0.489 -1.09,1.09l0,19.623c0,0.602 0.488,1.09 1.09,1.09l171.301,0c0.602,0 1.09,-0.488 1.09,-1.09l0,-19.623Z" style="fill:#c0deed;"/><rect x="40.134" y="199.885" width="82.088" height="40.912" style="fill:#c0deed;"/><circle cx="19.867" cy="174.908" r="14.393" style="fill:#00aced;"/></g><g><rect x="0" y="63.599" width="230.284" height="84.923" style="fill:#c8c8c8;"/><rect x="40.337" y="100.938" width="173.481" height="40.912" style="fill:#c0deed;"/><path d="M91.237,69.843c0,-0.269 -0.218,-0.487 -0.487,-0.487l-49.925,0c-0.269,0 -0.488,0.218 -0.488,0.487l0,8.772c0,0.269 0.219,0.487 0.488,0.487l49.925,0c0.269,0 0.487,-0.218 0.487,-0.487l0,-8.772Z" style="fill:#c0deed;"/><path d="M143.662,69.843c0,-0.269 -0.218,-0.487 -0.487,-0.487l-45.503,0c-0.269,0 -0.487,0.218 -0.487,0.487l0,8.772c0,0.269 0.218,0.487 0.487,0.487l45.503,0c0.269,0 0.487,-0.218 0.487,-0.487l0,-8.772Z" style="fill:#c0deed;"/><text x="99.246px" y="76.22px" style="font-family:'ArialMT', 'Arial', sans-serif;font-size:6.909px;">@</text><path d="M213.819,84.475c0,-0.401 -0.326,-0.726 -0.727,-0.726l-172.028,0c-0.401,0 -0.727,0.325 -0.727,0.726l0,13.072c0,0.401 0.326,0.726 0.727,0.726l172.028,0c0.401,0 0.727,-0.325 0.727,-0.726l0,-13.072Z" style="fill:#c0deed;"/><circle cx="20.07" cy="83.749" r="14.393" style="fill:#00aced;"/></g><rect x="0" y="0.023" width="230.284" height="58.559" style="fill:#c8c8c8;"/><path d="M91.237,6.267c0,-0.269 -0.218,-0.487 -0.487,-0.487l-49.925,0c-0.269,0 -0.488,0.218 -0.488,0.487l0,8.772c0,0.269 0.219,0.487 0.488,0.487l49.925,0c0.269,0 0.487,-0.218 0.487,-0.487l0,-8.772Z" style="fill:#c0deed;"/><path d="M143.662,6.267c0,-0.269 -0.218,-0.487 -0.487,-0.487l-45.503,0c-0.269,0 -0.487,0.218 -0.487,0.487l0,8.772c0,0.269 0.218,0.487 0.487,0.487l45.503,0c0.269,0 0.487,-0.218 0.487,-0.487l0,-8.772Z" style="fill:#c0deed;"/><text x="99.246px" y="12.644px" style="font-family:'ArialMT', 'Arial', sans-serif;font-size:6.909px;">@</text><path d="M213.819,21.728c0,-0.859 -0.697,-1.555 -1.556,-1.555l-170.37,0c-0.859,0 -1.556,0.696 -1.556,1.555l0,27.992c0,0.858 0.697,1.555 1.556,1.555l170.37,0c0.859,0 1.556,-0.697 1.556,-1.555l0,-27.992Z" style="fill:#c0deed;"/><circle cx="20.07" cy="20.173" r="14.393" style="fill:#00aced;"/></g></svg>